<?xml version="1.0" encoding="UTF-8" standalone="no"?>
<!-- Created with Inkscape (http://www.inkscape.org/) -->

<svg
   width="64"
   height="64"
   viewBox="0 0 64 64" >
   <path
      style="fill:none;stroke-width:4"
      d="M 38.800853,4.7111759 15.57869,30.975788 49.257979,24.177553" />
   <path
      style="fill:none;stroke-width:4"
      d="M 21.97247,59.208895 47.395379,35.068171 13.251744,38.90519" />
   <path
      style="stroke-width:5"
      d="m 29.660283,15.921932 c 0.165008,0.08112 0.54223,-0.05304 0.72786,0 0.155042,0.0443 2.321544,1.475705 2.456526,1.637684 0.955894,1.147072 -0.332926,-0.375114 0.454913,0.72786 0.606549,0.849169 0.08087,0 0.36393,0.36393 0.279289,0.359086 0.566502,0.713279 0.818842,1.091789 0.147713,0.22157 0.227644,0.500718 0.36393,0.72786 0.193729,0.322881 0.377046,0.538358 0.545894,0.909824 0.06758,0.14868 0.09137,0.319024 0.181965,0.454913 0.09516,0.142745 0.268767,0.221185 0.36393,0.36393 0.06335,0.09503 0.103444,0.635626 0.181965,0.818842 0.161564,0.376983 0.216519,0.605806 0.272948,1.000807 -0.09409,0.234774 0.144348,0.357812 0.181964,0.545895 0.01784,0.08921 -0.02499,0.185465 0,0.272947 0.03726,0.13041 0.139076,0.235261 0.181965,0.36393 0.0639,0.191686 -0.04917,0.440196 0,0.636877 0.0907,0.362812 0.09098,0.705854 0.09098,1.09179" />
   <path
      style="stroke-width:5"
      d="m 32.651336,48.732456 c -0.165008,-0.08112 -0.54223,0.05304 -0.72786,0 -0.155042,-0.0443 -2.321544,-1.475705 -2.456526,-1.637684 -0.955894,-1.147072 0.332926,0.375114 -0.454913,-0.72786 -0.606549,-0.849169 -0.08087,0 -0.36393,-0.36393 -0.279289,-0.359086 -0.566502,-0.713279 -0.818842,-1.091789 -0.147713,-0.22157 -0.227644,-0.500718 -0.36393,-0.72786 -0.193729,-0.322881 -0.377046,-0.538358 -0.545894,-0.909824 -0.06758,-0.14868 -0.09137,-0.319024 -0.181965,-0.454913 -0.09516,-0.142745 -0.268767,-0.221185 -0.36393,-0.36393 -0.06335,-0.09503 -0.103444,-0.635626 -0.181965,-0.818842 -0.161564,-0.376983 -0.216519,-0.605806 -0.272948,-1.000807 0.09409,-0.234774 -0.144348,-0.357812 -0.181964,-0.545895 -0.01784,-0.08921 0.02499,-0.185465 0,-0.272947 -0.03726,-0.13041 -0.139076,-0.235261 -0.181965,-0.36393 -0.0639,-0.191686 0.04917,-0.440196 0,-0.636877 -0.0907,-0.362812 -0.09098,-0.705854 -0.09098,-1.09179" />
</svg>